<svg xmlns="http://www.w3.org/2000/svg" xmlns:xlink="http://www.w3.org/1999/xlink" width="500" zoomAndPan="magnify" viewBox="0 0 375 374.999991" height="500" preserveAspectRatio="xMidYMid meet" version="1.0"><defs><g/><clipPath id="id1"><path d="M 105.613281 159.910156 L 295.363281 159.910156 L 295.363281 215.410156 L 105.613281 215.410156 Z M 105.613281 159.910156 " clip-rule="nonzero"/></clipPath><clipPath id="id2"><path d="M 74.871094 148.847656 L 280.371094 148.847656 L 280.371094 208.847656 L 74.871094 208.847656 Z M 74.871094 148.847656 " clip-rule="nonzero"/></clipPath><clipPath id="id3"><path d="M 90 148 L 285 148 L 285 215 L 90 215 Z M 90 148 " clip-rule="nonzero"/></clipPath><clipPath id="id4"><path d="M 89.527344 151.972656 L 282.910156 145.21875 L 285.210938 211.179688 L 91.832031 217.933594 Z M 89.527344 151.972656 " clip-rule="nonzero"/></clipPath><clipPath id="id5"><path d="M 186 174 L 199.949219 174 L 199.949219 189 L 186 189 Z M 186 174 " clip-rule="nonzero"/></clipPath><clipPath id="id6"><path d="M 175.199219 174 L 190 174 L 190 189 L 175.199219 189 Z M 175.199219 174 " clip-rule="nonzero"/></clipPath></defs><rect x="-37.5" width="450" fill="#ffffff" y="-37.499999" height="449.999989" fill-opacity="1"/><rect x="-37.5" width="450" fill="#ffffff" y="-37.499999" height="449.999989" fill-opacity="1"/><rect x="-37.5" width="450" fill="#ffffff" y="-37.499999" height="449.999989" fill-opacity="1"/><g clip-path="url(#id1)"><path fill="#4e529a" d="M 200.488281 159.910156 C 148.09375 159.910156 105.621094 172.335938 105.621094 187.660156 C 105.621094 202.988281 148.09375 215.410156 200.488281 215.410156 C 252.882812 215.410156 295.355469 202.988281 295.355469 187.660156 C 295.355469 172.335938 252.882812 159.910156 200.488281 159.910156 " fill-opacity="1" fill-rule="nonzero"/></g><g clip-path="url(#id2)"><path fill="#8c8dfc" d="M 177.621094 148.847656 C 120.882812 148.847656 74.882812 162.28125 74.882812 178.847656 C 74.882812 195.417969 120.882812 208.847656 177.621094 208.847656 C 234.363281 208.847656 280.363281 195.417969 280.363281 178.847656 C 280.363281 162.28125 234.363281 148.847656 177.621094 148.847656 " fill-opacity="1" fill-rule="nonzero"/></g><g clip-path="url(#id3)"><g clip-path="url(#id4)"><path fill="#ffffff" d="M 186.21875 148.597656 C 132.820312 150.460938 90.046875 166.738281 90.683594 184.953125 C 91.320312 203.167969 135.121094 216.421875 188.519531 214.558594 C 241.917969 212.691406 284.691406 196.414062 284.054688 178.199219 C 283.417969 159.988281 239.617188 146.730469 186.21875 148.597656 " fill-opacity="1" fill-rule="nonzero"/></g></g><g clip-path="url(#id5)"><path fill="#4e529a" d="M 199.332031 181.351562 L 192.664062 174.238281 L 192.664062 179.449219 L 186.039062 184.664062 L 192.664062 184.667969 L 192.664062 188.464844 Z M 199.332031 181.351562 " fill-opacity="1" fill-rule="evenodd"/></g><g clip-path="url(#id6)"><path fill="#8c8dfc" d="M 175.820312 181.351562 L 182.488281 188.464844 L 182.488281 183.296875 L 189.113281 178.039062 L 182.488281 178.03125 L 182.488281 174.234375 Z M 175.820312 181.351562 " fill-opacity="1" fill-rule="evenodd"/></g><g fill="#8c8dfc" fill-opacity="1"><g transform="translate(126.205162, 190.020602)"><g><path d="M 11.851562 -19.332031 L 0.8125 -19.332031 L 0.8125 -15.074219 L 6.191406 -15.074219 L 0.421875 -3.390625 L 0.421875 0 L 11.851562 0 L 11.851562 -4.257812 L 6.25 -4.257812 L 11.851562 -15.664062 Z M 11.851562 -19.332031 "/></g></g></g><g fill="#8c8dfc" fill-opacity="1"><g transform="translate(138.477748, 190.020602)"><g><path d="M 10.621094 0 L 16.449219 0 L 11.292969 -11.460938 L 16.390625 -19.332031 L 10.394531 -19.332031 L 6.191406 -12.328125 L 6.191406 -19.332031 L 0.867188 -19.332031 L 0.867188 0 L 6.191406 0 L 6.191406 -8.351562 L 7.199219 -8.796875 Z M 10.621094 0 "/></g></g></g><g fill="#8c8dfc" fill-opacity="1"><g transform="translate(155.00931, 190.020602)"><g><path d="M 0.140625 0 L 5.800781 0 L 7.59375 -6.21875 L 7.816406 -6.21875 L 9.582031 0 L 15.1875 0 L 11.292969 -9.667969 L 15.1875 -19.332031 L 9.554688 -19.332031 L 7.816406 -12.496094 L 7.59375 -12.496094 L 5.800781 -19.332031 L 0.167969 -19.332031 L 3.980469 -9.667969 Z M 0.140625 0 "/></g></g></g><g fill="#8c8dfc" fill-opacity="1"><g transform="translate(170.326253, 190.020602)"><g/></g></g><g fill="#8c8dfc" fill-opacity="1"><g transform="translate(175.734032, 190.020602)"><g/></g></g><g fill="#8c8dfc" fill-opacity="1"><g transform="translate(181.141811, 190.020602)"><g/></g></g><g fill="#8c8dfc" fill-opacity="1"><g transform="translate(186.549591, 190.020602)"><g/></g></g><g fill="#8c8dfc" fill-opacity="1"><g transform="translate(191.95737, 190.020602)"><g/></g></g><g fill="#8c8dfc" fill-opacity="1"><g transform="translate(197.365149, 190.020602)"><g/></g></g><g fill="#4e529a" fill-opacity="1"><g transform="translate(202.763751, 190.020602)"><g><path d="M 0.867188 0 L 6.558594 0 C 12.414062 0 15.300781 -3.53125 15.300781 -9.722656 C 15.300781 -15.578125 12.523438 -19.332031 6.585938 -19.332031 L 0.867188 -19.332031 Z M 6.023438 -4.285156 L 6.023438 -15.019531 L 6.527344 -15.019531 C 8.882812 -15.019531 9.976562 -13.058594 9.976562 -9.722656 C 9.976562 -6.21875 8.742188 -4.285156 6.277344 -4.285156 Z M 6.023438 -4.285156 "/></g></g></g><g fill="#4e529a" fill-opacity="1"><g transform="translate(218.622846, 190.020602)"><g><path d="M 10.144531 0 L 15.523438 0 L 11.011719 -19.332031 L 4.257812 -19.332031 L -0.222656 0 L 5.238281 0 L 5.773438 -3.167969 L 9.640625 -3.167969 Z M 6.527344 -7.398438 L 7.453125 -12.832031 L 7.707031 -14.960938 L 7.84375 -14.960938 L 8.070312 -12.832031 L 8.9375 -7.398438 Z M 6.527344 -7.398438 "/></g></g></g><g fill="#4e529a" fill-opacity="1"><g transform="translate(233.949574, 190.020602)"><g><path d="M 7.257812 0.28125 C 12.078125 0.28125 14.261719 -2.464844 14.261719 -9.667969 C 14.261719 -16.867188 12.078125 -19.613281 7.257812 -19.613281 C 2.632812 -19.613281 0.558594 -16.867188 0.558594 -9.667969 C 0.558594 -2.464844 2.632812 0.28125 7.257812 0.28125 Z M 7.425781 -4.34375 C 6.359375 -4.34375 5.882812 -5.296875 5.882812 -9.667969 C 5.882812 -14.121094 6.359375 -15.128906 7.425781 -15.128906 C 8.460938 -15.128906 8.9375 -14.121094 8.9375 -9.667969 C 8.9375 -5.296875 8.460938 -4.34375 7.425781 -4.34375 Z M 7.425781 -4.34375 "/></g></g></g></svg>